<svg width="66" height="66" viewBox="0 0 66 66" fill="none" xmlns="http://www.w3.org/2000/svg">
<circle cx="33" cy="33" r="33" fill="#FFE4E4"/>
<mask id="mask0" mask-type="alpha" maskUnits="userSpaceOnUse" x="19" y="19" width="28" height="28">
<path d="M45.5999 20.4199C45.2263 20.0454 44.719 19.8349 44.1899 19.8349C43.6609 19.8349 43.1536 20.0454 42.7799 20.4199L32.9999 30.1799L23.2199 20.3999C22.8463 20.0254 22.339 19.8149 21.8099 19.8149C21.2809 19.8149 20.7736 20.0254 20.3999 20.3999C19.6199 21.1799 19.6199 22.4399 20.3999 23.2199L30.1799 32.9999L20.3999 42.7799C19.6199 43.5599 19.6199 44.8199 20.3999 45.5999C21.1799 46.3799 22.4399 46.3799 23.2199 45.5999L32.9999 35.8199L42.7799 45.5999C43.5599 46.3799 44.8199 46.3799 45.5999 45.5999C46.3799 44.8199 46.3799 43.5599 45.5999 42.7799L35.8199 32.9999L45.5999 23.2199C46.3599 22.4599 46.3599 21.1799 45.5999 20.4199Z" fill="black"/>
</mask>
<g mask="url(#mask0)">
<rect x="9" y="9" width="48" height="48" fill="#F14A50"/>
</g>
</svg>
