<svg width="24" height="25" viewBox="0 0 24 25" fill="none" xmlns="http://www.w3.org/2000/svg">
<mask id="mask0" mask-type="alpha" maskUnits="userSpaceOnUse" x="5" y="3" width="14" height="19">
<path fill-rule="evenodd" clip-rule="evenodd" d="M5.85612 6.40955L8.64612 3.61955C8.83612 3.42955 9.15612 3.42955 9.34612 3.61955L12.1361 6.40955C12.4561 6.71955 12.2361 7.25955 11.7861 7.25955H9.99612V13.2696C9.99612 13.8196 9.54612 14.2696 8.99612 14.2696C8.44612 14.2696 7.99612 13.8196 7.99612 13.2696V7.25955H6.20612C5.75612 7.25955 5.53612 6.71955 5.85612 6.40955ZM15.9961 11.2696V17.2796H17.7961C18.2361 17.2796 18.4661 17.8196 18.1461 18.1296L15.3561 20.9096C15.1561 21.0996 14.8461 21.0996 14.6461 20.9096L11.8561 18.1296C11.5361 17.8196 11.7561 17.2796 12.2061 17.2796H13.9961V11.2696C13.9961 10.7196 14.4461 10.2696 14.9961 10.2696C15.5461 10.2696 15.9961 10.7196 15.9961 11.2696Z" fill="black"/>
</mask>
<g mask="url(#mask0)">
<rect y="0.264648" width="24" height="24" fill="#6FCF97"/>
</g>
</svg>
