<svg width="131" height="85" viewBox="0 0 131 85" fill="none" xmlns="http://www.w3.org/2000/svg">
<path d="M42.3086 15.496L30.471 76.3288L28.921 84.2925L107.948 83.9044C111.493 83.8877 114.636 80.739 115.778 76.0644L129.791 18.6314C130.659 15.0811 128.757 11.3903 126.065 11.3903L46.0815 11.474C44.3172 11.474 42.7705 13.1203 42.3086 15.496Z" fill="#BDBDBD"/>
<path d="M100.368 72.2063L92.0023 4.81178C91.6608 2.05122 89.458 -0.0100019 86.8602 3.65081e-05L68.5113 0.0602669C67.1521 0.0636131 65.8498 0.642494 64.8857 1.66641L56.1749 10.9218L5.14543 11.1895C2.02869 11.2062 -0.368281 14.1542 0.0468376 17.4669L7.81692 79.7552C8.16174 82.5124 10.3578 84.5703 12.9523 84.5636L101.885 84.3896C111.791 84.5937 112.735 81.6725 112.735 81.6725C101.383 84.1888 100.372 72.213 100.368 72.2063Z" fill="#E1E1E1"/>
<path d="M63.0989 59.4855L60.0993 62.7045L37 41.935L39.9996 38.7161L63.0989 59.4855Z" fill="#C6C6C6"/>
<path d="M58.8406 38L62.1582 40.9814L41.255 63.4206L37.9407 60.4392L58.8406 38Z" fill="#C6C6C6"/>
<path d="M62.0989 58.4855L59.0993 61.7045L36 40.935L38.9996 37.7161L62.0989 58.4855Z" fill="white"/>
<path d="M57.8406 37L61.1582 39.9814L40.255 62.4206L36.9407 59.4392L57.8406 37Z" fill="white"/>
</svg>
