<svg width="66" height="66" viewBox="0 0 66 66" fill="none" xmlns="http://www.w3.org/2000/svg">
<circle cx="33" cy="33" r="33" fill="#DBF8E8"/>
<mask id="mask0" mask-type="alpha" maskUnits="userSpaceOnUse" x="16" y="20" width="34" height="26">
<path d="M26.5998 40.8098L19.5998 33.8098C19.2301 33.4355 18.7259 33.2248 18.1998 33.2248C17.6737 33.2248 17.1696 33.4355 16.7998 33.8098C16.0198 34.5898 16.0198 35.8298 16.7998 36.6098L25.1798 44.9898C25.9598 45.7698 27.2198 45.7698 27.9998 44.9898L49.1998 23.8098C49.9798 23.0298 49.9798 21.7898 49.1998 21.0098C48.8301 20.6355 48.3259 20.4248 47.7998 20.4248C47.2737 20.4248 46.7696 20.6355 46.3998 21.0098L26.5998 40.8098Z" fill="black"/>
</mask>
<g mask="url(#mask0)">
<rect x="9" y="9" width="48" height="48" fill="#6FCF97"/>
</g>
</svg>
