<svg width="24" height="25" viewBox="0 0 24 25" fill="none" xmlns="http://www.w3.org/2000/svg">
<mask id="mask0" mask-type="alpha" maskUnits="userSpaceOnUse" x="2" y="3" width="20" height="19">
<path fill-rule="evenodd" clip-rule="evenodd" d="M20.7088 5.89591C21.0988 6.28591 21.0988 6.91591 20.7088 7.30591L18.8788 9.13591L15.1288 5.38591L16.9588 3.55591C17.1456 3.36866 17.3993 3.26343 17.6638 3.26343C17.9283 3.26343 18.1819 3.36866 18.3688 3.55591L20.7088 5.89591ZM2.99878 20.7659V17.7259C2.99878 17.5859 3.04878 17.4659 3.14878 17.3659L14.0588 6.45591L17.8088 10.2059L6.88878 21.1159C6.79878 21.2159 6.66878 21.2659 6.53878 21.2659H3.49878C3.21878 21.2659 2.99878 21.0459 2.99878 20.7659Z" fill="black"/>
</mask>
<g mask="url(#mask0)">
<rect y="0.264648" width="24" height="24" fill="#0054A6"/>
</g>
</svg>
